# xmcd
#
# Track frame offsets: 
#        150
#        17705
#        41042
#        59187
#        77867
#        91785
#        106878
#        124408
#        138698
#        160215
#        182028
#        200672
#        223395
#        238037
#        252338
#        273345
#        295822
#        319006
#        335130
#
# Disc length: 4690 seconds
#
# Revision: 0
# Processed by: cddbd v1.5.2PL0 Copyright (c) Steve Scherf et al.
# Submitted via: ExactAudioCopyFreeDBPlugin 1.0
#
DISCID=30125013
DTITLE=Johnny Bristol - Johnny Bristol:  Modern Soul Classics, 1974-19
DTITLE=81
DYEAR=2016
DGENRE=Soul
TTITLE0=Hang On in There Baby
TTITLE1=Woman Woman
TTITLE2=Reachin' Out for Your Love
TTITLE3=Memories Don't Leave Like People Do
TTITLE4=Lusty Lady
TTITLE5=Love Takes Tears
TTITLE6=Go on and Dream
TTITLE7=I Wouldn't Change a Thing
TTITLE8=Do It to My Mind
TTITLE9=You Turned Me on to Love
TTITLE10=Have Yourself a Good Time Thinkin' Bout the Good Times
TTITLE11=Strangers in the Dark Corners
TTITLE12=I'm Waiting on Love
TTITLE13=She's So Amazing
TTITLE14=I'm So Proud of You
TTITLE15=Love No Longer Has a Hold on Me
TTITLE16=Take Me Down
TTITLE17=Till I See You Again
TTITLE18=Hold On to Love
EXTD=
EXTT0=
EXTT1=
EXTT2=
EXTT3=
EXTT4=
EXTT5=
EXTT6=
EXTT7=
EXTT8=
EXTT9=
EXTT10=
EXTT11=
EXTT12=
EXTT13=
EXTT14=
EXTT15=
EXTT16=
EXTT17=
EXTT18=
PLAYORDER=
